<?xml version="1.0" encoding="UTF-8"?>
<svg width="200px" height="23px" viewBox="0 0 103 12" version="1.1" xmlns="http://www.w3.org/2000/svg"
     xmlns:xlink="http://www.w3.org/1999/xlink">
    <!-- Generator: Sketch 61 (89581) - https://sketch.com -->
    <title>Mammotome-Full_Logo-Purple</title>
    <desc>Created with Sketch.</desc>
    <g id="Page-1" stroke="none" stroke-width="1" fill="none" fill-rule="evenodd">
        <g id="Mammotome-Full_Logo-Purple" fill="#84329B">
            <path d="M3.2325744,0 L6.3634586,6.979714 C6.6665735,7.6860658 6.7565302,7.9255071 6.9305769,8.4502827 C6.9305769,8.452278 6.9305769,8.4542734 6.9286213,8.4562687 C6.9657773,8.5640173 7.0029334,8.6797473 7.0498673,8.8194214 C7.2336919,8.2906551 7.3158262,8.0971068 7.5348512,7.5683405 L7.5348512,7.5683405 L10.76547,0.0099767 L11.9837966,0.0099767 L11.9837966,0 L12.1343763,0 L14,11.9900233 L14,12 L11.6063696,12 L10.76547,5.9561024 C10.6833357,5.2397739 10.6657354,5.0342534 10.6168459,4.4376455 C10.4467104,5.1539741 10.3821763,5.327569 10.0966615,6.0219488 L10.0966615,6.0219488 L7.5016064,12 L6.2304791,12 L3.4496438,5.7964749 C3.4222657,5.7246425 3.3968431,5.6587961 3.3733762,5.5989358 C3.3675094,5.5829731 3.3635983,5.571001 3.3577315,5.5590289 C3.3401313,5.513136 3.3244867,5.4712338 3.308842,5.4313269 C3.3029753,5.4153642 3.2990641,5.4033921 3.2931974,5.3874293 C3.2795083,5.3475224 3.2638637,5.3096109 3.2521302,5.2716994 L3.248219,5.2597273 C3.2364855,5.2278018 3.2247521,5.1958763 3.2149742,5.1619554 L3.2149742,5.1619554 C3.15044,4.9604257 3.1015505,4.7648819 3.0311496,4.4376455 C3.0252829,4.6212172 3.0194161,4.7648819 3.0115938,4.8945793 L3.0115938,4.8945793 L3.0089049,4.9354839 L3.0089049,4.9354839 L3.0076826,4.9763884 C3.0076826,4.9823745 3.0076826,4.9883605 3.0057271,4.9943465 L3.0057271,4.9943465 L2.9979047,5.1200532 C2.9803045,5.3315597 2.9568375,5.5490522 2.9118592,5.9042235 L2.9118592,5.9042235 L2.0240257,12 L0,12 L0.0019556,11.9900233 L0,11.9900233 L0.0293337,11.808447 L0.0312893,11.808447 L1.8754016,0.0099767 L3.1367509,0.0099767 L3.1328398,0 L3.2325744,0 Z M90.36284,3 C90.478715,3 90.586599,3.0060174 90.694483,3.0140406 C91.363762,3.0762202 91.881205,3.3229329 92.230828,3.6238021 L92.230828,3.6238021 L92.208852,3.5977268 C92.254803,3.6338311 92.298755,3.6719412 92.336714,3.7120571 C92.982019,4.3779808 93,5.2123914 93,5.9144194 L93,5.9144194 L93,12 L90.70647,12 L90.70622,5.8677847 L90.70622,5.8677847 L90.704472,5.8081123 C90.704472,5.792066 90.704472,5.772008 90.702474,5.7539559 L90.702474,5.7539559 L90.700476,5.6857589 L90.700476,5.6857589 L90.694483,5.6115445 L90.694483,5.6115445 L90.688489,5.557388 L90.688489,5.557388 L90.676502,5.4711388 L90.676502,5.4711388 L90.666513,5.4270114 C90.660519,5.3949187 90.654526,5.3628259 90.646535,5.3307332 C90.644537,5.3207043 90.640541,5.3106753 90.638543,5.3026521 C90.606578,5.1903276 90.560627,5.0780031 90.494698,4.9696902 C90.452743,4.903499 90.406793,4.8373078 90.346857,4.7731224 C90.294913,4.7169601 90.236976,4.668821 90.171047,4.6246936 C90.161057,4.6166704 90.153066,4.610653 90.143077,4.6046356 C89.933303,4.4722532 89.669587,4.3980388 89.405871,4.3980388 C88.910404,4.3980388 88.432918,4.6347225 88.107269,4.9777134 C87.885508,5.2043682 87.765637,5.410965 87.645766,5.6275908 L87.645766,5.6275908 L87.645766,12 L85.350238,12 L85.350238,5.9063963 C85.34824,5.8923557 85.34824,5.8783151 85.34824,5.8622688 C85.346243,5.840205 85.346243,5.8161355 85.344245,5.7900602 C85.342247,5.7679964 85.340249,5.7479385 85.338251,5.723869 C85.336253,5.7018052 85.332258,5.6797415 85.33026,5.6556719 C85.326264,5.6295966 85.324266,5.6035213 85.318273,5.5754402 C85.316275,5.5553822 85.310281,5.5333185 85.306286,5.5132605 C85.300292,5.4811678 85.294298,5.4510809 85.286307,5.4189882 L85.286307,5.4189882 L85.272322,5.3648317 L85.272322,5.3648317 L85.238359,5.2565188 L85.226372,5.2304435 C85.192408,5.138177 85.150453,5.0479162 85.092516,4.9596612 L85.094514,4.9636728 L85.093,4.962 L85.094,4.962 L85.092516,4.9596612 L85.093,4.962 L85.03308,4.874415 L85.03308,4.874415 L84.962656,4.7911745 C84.912709,4.7370181 84.854772,4.6908848 84.792838,4.6467573 C84.776856,4.6367283 84.760873,4.6266994 84.742892,4.6146646 C84.535116,4.4802764 84.2714,4.3980388 83.999693,4.3980388 C83.759951,4.3980388 83.298448,4.4481836 82.786999,4.9476265 C82.511296,5.2043682 82.411403,5.410965 82.287536,5.6275908 L82.287536,5.6275908 L82.287536,12 L80,12 L80,3.2567417 L82.101737,3.2567417 L82.101737,3.2487185 L82.287536,3.2487185 L82.287536,4.3478939 C82.457354,4.1412971 82.715076,3.8303989 83.11065,3.5576109 L83.11065,3.5576109 L83.130629,3.5455761 C83.21254,3.4894139 83.300446,3.4372632 83.394345,3.3851125 L83.394345,3.3851125 L83.434302,3.3670604 C83.5282,3.3169155 83.626095,3.2707823 83.733979,3.2306664 C83.737974,3.2286606 83.74197,3.2266548 83.743968,3.224649 C83.851852,3.1845331 83.965729,3.1504346 84.083602,3.1203477 L84.083602,3.1203477 L84.157523,3.1022955 C84.275396,3.0742144 84.403258,3.0501449 84.535116,3.0340985 C84.561088,3.0300869 84.58706,3.0280811 84.613032,3.0260753 C84.754879,3.010029 84.904718,3 85.062548,3 C85.540034,3 86.103427,3.0802318 86.62087,3.3951415 C86.686799,3.4352574 86.748732,3.4773791 86.804672,3.5195008 C86.83464,3.5435703 86.860612,3.5656341 86.888582,3.5897036 C86.910558,3.6077557 86.934532,3.6278137 86.954511,3.6458658 C86.990472,3.6779585 87.02044,3.7100513 87.050407,3.742144 L87.050407,3.742144 L87.076379,3.7702251 C87.110343,3.8083352 87.142308,3.8484511 87.170278,3.8865612 L87.170278,3.8865612 C87.338097,4.1092044 87.429998,4.3358591 87.505917,4.5344328 C87.529891,4.5023401 87.553865,4.4722532 87.575841,4.4421663 L87.575841,4.4421663 L87.590576,4.425117 L87.590576,4.425117 L87.603811,4.4080678 L87.621792,4.3839982 L87.673736,4.3198128 L87.673736,4.3198128 L87.757646,4.2175173 C87.759643,4.2175173 87.761641,4.2155115 87.763639,4.2135057 C87.791609,4.1774014 87.823575,4.1412971 87.85554,4.1071986 L87.85554,4.1071986 C87.889504,4.0690885 87.921469,4.03499 87.955433,4.0008915 L87.955433,4.0008915 C87.993392,3.9627814 88.029353,3.9286829 88.065314,3.8945844 C88.065314,3.8925786 88.067312,3.8925786 88.067312,3.8925786 C88.181189,3.7882772 88.309052,3.6859817 88.464884,3.5816804 C89.062241,3.1765099 89.701552,3.0361043 90.173044,3.0060174 C90.240971,3.0020058 90.304902,3 90.36284,3 Z M98.651928,3 C99.367458,3 100.647571,3.1046733 101.670878,4.0238951 C101.668917,4.021992 101.666957,4.0181857 101.666957,4.0162825 C101.700283,4.0486361 101.73753,4.073377 101.776737,4.1076337 C102.966674,5.2742652 102.982357,6.812011 103,7.7198139 L103,7.7198139 L103,7.7293297 L96.387715,7.7293297 C96.440645,8.1023472 96.568068,9.0691478 97.234589,9.7809262 C97.214986,9.7637978 97.197343,9.7466695 97.177739,9.727638 L97.18,9.73 L97.285704,9.8440826 C97.323096,9.8822866 97.36194,9.9197857 97.402381,9.956298 L97.528643,10.0625925 C97.550207,10.0778177 97.573731,10.0930429 97.597255,10.1101713 C97.656066,10.1520406 97.718798,10.1939099 97.78545,10.2319729 C97.810934,10.2471981 97.838379,10.2643265 97.865824,10.2776486 C97.948159,10.321421 98.034415,10.3632903 98.126552,10.4013534 C98.138314,10.4051597 98.148116,10.4108691 98.157918,10.4146754 C98.261817,10.4546416 98.371597,10.4888983 98.489218,10.5174455 C98.520584,10.5269613 98.551949,10.5326708 98.585276,10.5402834 C98.677412,10.5593149 98.771509,10.5764432 98.871488,10.5897653 C98.908734,10.5954747 98.945981,10.599281 98.985188,10.6049905 C99.120453,10.6183125 99.259638,10.6278283 99.408626,10.6278283 C99.506643,10.6278283 99.600741,10.624022 99.690917,10.6183125 C101.045524,10.5326708 101.62579,9.8189892 102.17861,9.1376612 L102.17861,9.1376612 L102.517752,9.2956228 C102.517752,9.2918165 102.519712,9.2899133 102.519712,9.2880102 L102.519712,9.2880102 L102.731431,9.386974 C102.729471,9.3888771 102.729471,9.3926834 102.729471,9.3945866 L102.729471,9.3945866 C102.717709,9.4288433 102.703986,9.4669063 102.688303,9.5030662 L102.688303,9.5030662 C102.306034,10.4279975 101.561098,12 98.722501,12 C96.626879,12 95.20758,11.0579404 94.507733,9.6591246 L94.507733,9.6591246 C94.44108,9.5297103 94.38619,9.400296 94.335221,9.2689786 L94.335221,9.2689786 L94.323459,9.2404314 C94.27641,9.1167266 94.235243,8.9911186 94.199956,8.8617044 C94.194075,8.8407697 94.188194,8.8236414 94.182313,8.8046099 C94.148987,8.6828082 94.123503,8.5610066 94.099978,8.4373018 C94.094097,8.4068513 94.086256,8.3783041 94.080375,8.3497568 C94.060771,8.2298583 94.047049,8.1061535 94.033326,7.9824487 C94.031366,7.948192 94.023524,7.9158384 94.021564,7.8815817 C94.007841,7.7236202 94,7.5637556 94,7.4000846 C94,4.9754705 95.615334,3 98.651928,3 Z M35.3640553,3 C35.4778802,3 35.5877112,3.0060174 35.6935484,3.0160464 C36.3625192,3.0762202 36.8757296,3.3229329 37.2211982,3.6238021 L37.2211982,3.6238021 L37.2032258,3.5977268 C37.2471582,3.6338311 37.2930876,3.6699354 37.3290323,3.7120571 C37.9840246,4.3779808 38,5.2123914 38,5.9144194 L38,5.9144194 L38,12 L35.703533,12 L35.703533,5.8121239 C35.7015361,5.7860486 35.7015361,5.7619791 35.6995392,5.7338979 C35.6995392,5.7218632 35.6995392,5.7078226 35.6975422,5.6917762 C35.6955453,5.6596835 35.6935484,5.6275908 35.6895545,5.5934923 L35.6895545,5.5934923 L35.6875576,5.5694228 C35.6835637,5.5313127 35.677573,5.4932026 35.6715822,5.4550925 C35.6715822,5.4530867 35.6715822,5.4510809 35.6695853,5.4490751 C35.6396313,5.2805884 35.5837174,5.1060842 35.4778802,4.9396033 C35.4778802,4.9416091 35.4778802,4.9416091 35.4778802,4.9416091 L35.4189708,4.8558614 L35.4189708,4.8558614 L35.3480799,4.7731224 C35.2981567,4.7189659 35.2362519,4.6708268 35.1723502,4.6266994 C35.1603687,4.6186762 35.150384,4.610653 35.1384025,4.6046356 C34.928725,4.4722532 34.6671275,4.3980388 34.40553,4.3980388 C33.906298,4.3980388 33.4310292,4.6347225 33.1075269,4.9777134 C32.883871,5.2043682 32.7640553,5.410965 32.6442396,5.6275908 L32.6442396,5.6275908 L32.6442396,12 L30.3537634,12 L30.3537634,5.9063963 C30.3517665,5.8923557 30.3517665,5.8763093 30.3517665,5.860263 C30.3497696,5.840205 30.3497696,5.8161355 30.3477727,5.792066 C30.3457757,5.7700022 30.3437788,5.7439269 30.3397849,5.7198574 C30.337788,5.7018052 30.3357911,5.6817473 30.3337942,5.6616893 C30.3298003,5.6316024 30.3258065,5.6015155 30.3198157,5.5694228 C30.3178187,5.5553822 30.3138249,5.5393359 30.311828,5.5232895 C30.3038402,5.4851794 30.2958525,5.4490751 30.2858679,5.410965 C30.283871,5.4029418 30.281874,5.3949187 30.2778802,5.3868955 C30.2399386,5.2444841 30.1820276,5.1000669 30.0921659,4.9636728 L30.0921659,4.9636728 L30.0322581,4.8774237 L30.0322581,4.8774237 L29.9563748,4.7911745 C29.9044547,4.7350123 29.8445469,4.6848674 29.7786482,4.6387341 L29.7786482,4.6387341 L29.7546851,4.6226878 C29.5450077,4.4842879 29.2774194,4.3980388 29.0038402,4.3980388 C28.7602151,4.3980388 28.3029186,4.4481836 27.7857143,4.9476265 C27.5141321,5.2043682 27.4142857,5.410965 27.2904762,5.6275908 L27.2904762,5.6275908 L27.2904762,12 L25,12 L25,3.2587475 L27.1087558,3.2587475 L27.1087558,3.2487185 L27.2904762,3.2487185 L27.2904762,4.3478939 C27.462212,4.1412971 27.7178187,3.8283931 28.1152074,3.5576109 L28.1152074,3.5576109 L28.1331797,3.5455761 C28.2150538,3.4894139 28.3029186,3.4352574 28.3967742,3.3871183 C28.4087558,3.3790952 28.4247312,3.3730778 28.4387097,3.3650546 C28.5305684,3.3169155 28.6284178,3.2707823 28.734255,3.2306664 C28.7402458,3.2286606 28.7442396,3.2266548 28.7482335,3.2266548 C28.8540707,3.1845331 28.9678955,3.1504346 29.0857143,3.1203477 L29.0857143,3.1203477 L29.1596006,3.1002897 C29.2774194,3.0742144 29.4032258,3.0501449 29.53702,3.0340985 C29.56298,3.0300869 29.5889401,3.0280811 29.6149002,3.0260753 C29.758679,3.010029 29.9064516,3 30.0642089,3 C30.5414747,3 31.1046083,3.0802318 31.6178187,3.3951415 C31.6837174,3.4352574 31.7436252,3.4753733 31.7995392,3.517495 C31.8454685,3.5515935 31.8854071,3.585692 31.9253456,3.6197905 L31.9253456,3.6197905 L31.9353303,3.6318253 C31.9293395,3.6217963 31.9253456,3.6137731 31.9173579,3.6057499 C32.1569892,3.8163584 32.2967742,4.0390016 32.3946237,4.2536216 L32.3946237,4.2536216 C32.4365591,4.3519055 32.4725038,4.4461778 32.5084485,4.5344328 C32.6562212,4.3438823 32.7900154,4.1693782 32.9537634,4.0028973 L32.9537634,4.0028973 L33.009927,3.946735 L33.009927,3.946735 L33.0596006,3.8985959 L33.0596006,3.8985959 L33.0815668,3.8805438 C33.1135177,3.8504569 33.1454685,3.8223758 33.1814132,3.7922888 C33.187404,3.7862715 33.1953917,3.7822599 33.2033794,3.7762425 C33.2812596,3.7120571 33.3671275,3.6458658 33.464977,3.5816804 C34.0620584,3.1765099 34.7030722,3.0361043 35.1743472,3.0060174 C35.2422427,3.0020058 35.3041475,3 35.3640553,3 Z M49.3636503,3 C49.4754955,3 49.5873406,3.0060174 49.6911968,3.0140406 C50.3662621,3.0762202 50.8815486,3.3269445 51.2310647,3.6298195 L51.2310647,3.6298195 L51.2090951,3.5977268 C51.251037,3.6358369 51.292979,3.673947 51.3329236,3.7120571 C51.9820249,4.3779808 52,5.2123914 52,5.9144194 L52,5.9144194 L52,12 L49.7031802,12 L49.7031802,5.8101181 C49.701183,5.7900602 49.701183,5.7700022 49.6991857,5.7479385 L49.6991857,5.7479385 L49.6971885,5.6877647 C49.6951913,5.6616893 49.693194,5.6336082 49.6891996,5.6035213 C49.6891996,5.5914865 49.6872023,5.5754402 49.6852051,5.5613996 L49.6852051,5.5613996 L49.6712245,5.4651215 C49.6712245,5.4550925 49.6692272,5.4450635 49.66723,5.4370403 C49.6592411,5.3989302 49.6512521,5.3628259 49.6412659,5.3247158 L49.6412659,5.3247158 C49.607313,5.1923334 49.5573821,5.0659684 49.4794899,4.9456207 C49.4415425,4.8874526 49.3996006,4.8292846 49.3456752,4.7731224 C49.2957444,4.7209717 49.2398218,4.6748384 49.1779075,4.6307109 L49.1779075,4.6307109 L49.1299739,4.600624 C48.9222615,4.4702474 48.6666155,4.3980388 48.4029805,4.3980388 C47.9096635,4.3980388 47.42833,4.6347225 47.1027808,4.9777134 C46.883085,5.2043682 46.7612536,5.410965 46.645414,5.6275908 L46.645414,5.6275908 L46.645414,12 L44.3525887,12 L44.3525887,5.9084021 C44.3505915,5.8923557 44.3505915,5.8722977 44.3485943,5.8542456 C44.3485943,5.8361934 44.346597,5.8141297 44.3445998,5.792066 C44.3445998,5.7700022 44.3426026,5.7439269 44.3386081,5.7198574 C44.3366108,5.6997994 44.3346136,5.6817473 44.3326164,5.6596835 C44.3286219,5.6316024 44.3246274,5.6035213 44.3186357,5.5714286 C44.3146413,5.5533764 44.312644,5.5353243 44.3086496,5.5152663 C44.3026579,5.4831736 44.2946689,5.4510809 44.28668,5.4189882 C44.2826855,5.3989302 44.2766938,5.3808781 44.2707021,5.3628259 C44.2607159,5.3287274 44.2507298,5.2946289 44.2387464,5.2605304 L44.2387464,5.2605304 L44.2167768,5.206374 C44.1948072,5.1522175 44.1708404,5.1000669 44.1408819,5.0459104 C44.090951,4.9576554 44.0330312,4.8694005 43.9591335,4.7911745 C43.9072054,4.7370181 43.8492856,4.688879 43.7853741,4.6447515 C43.7733907,4.6347225 43.75941,4.6266994 43.7454294,4.6166704 C43.537717,4.4822821 43.2760793,4.3980388 43.0044554,4.3980388 C42.7607927,4.3980388 42.2994316,4.4481836 41.7881395,4.9476265 C41.5125211,5.2043682 41.4126594,5.410965 41.2928253,5.6275908 L41.2928253,5.6275908 L41.2928253,12 L39,12 L39,3.2587475 L41.1070825,3.2587475 L41.1070825,3.2487185 L41.2928253,3.2487185 L41.2928253,4.3478939 C41.460593,4.1412971 41.7142418,3.8303989 42.1096943,3.5596167 C42.1176832,3.5535993 42.1256721,3.5475819 42.1356583,3.5415645 C42.2155477,3.4874081 42.3014288,3.4352574 42.3913043,3.3871183 L42.3913043,3.3871183 L42.439238,3.3630488 C42.5311108,3.3169155 42.626978,3.2727881 42.728837,3.2326722 L42.728837,3.2326722 L42.7468121,3.224649 C42.8506683,3.1845331 42.9645107,3.1504346 43.0823475,3.1203477 C43.1063143,3.1143303 43.1322784,3.1063071 43.1582424,3.1002897 C43.2760793,3.0742144 43.3999078,3.0501449 43.5337225,3.0340985 C43.5576894,3.0300869 43.5856506,3.0280811 43.6136119,3.0260753 C43.7554156,3.010029 43.9012137,3 44.0609925,3 C44.5383315,3 45.1055462,3.0802318 45.6168382,3.3951415 C45.6847442,3.4352574 45.7446612,3.4773791 45.8005838,3.5195008 C45.8345368,3.5435703 45.8605008,3.5676398 45.8904594,3.5937152 C45.9064372,3.6057499 45.9244124,3.6177847 45.938393,3.6318253 L45.936,3.629 L45.9286565,3.6197905 L45.9286565,3.6197905 L45.9204179,3.6077557 C46.1560916,3.8183642 46.2978952,4.0390016 46.3937625,4.2516158 L46.3937625,4.2516158 C46.4357044,4.3498997 46.4736519,4.4441721 46.5096021,4.5344328 C46.5914887,4.4261199 46.6733753,4.3218186 46.7552619,4.2215289 C46.7592564,4.2195231 46.7612536,4.2155115 46.7652481,4.2114999 C46.7912122,4.181413 46.8171762,4.1493203 46.8431403,4.1212391 C46.8531264,4.1092044 46.8631126,4.0991754 46.8711016,4.0891464 C46.8930711,4.0630711 46.9170379,4.0390016 46.9410048,4.014932 C46.9569826,3.9988857 46.9709633,3.9848451 46.9869412,3.9687988 C47.0089107,3.9487408 47.0288831,3.9286829 47.0508527,3.9066191 C47.0688278,3.8905728 47.0907974,3.8725206 47.1107697,3.8544685 L47.1107697,3.8544685 L47.1746812,3.7983062 C47.1946536,3.7822599 47.2166231,3.7642077 47.2365955,3.7501671 C47.2625595,3.7281034 47.2885236,3.7080455 47.3164849,3.6859817 C47.3184821,3.6859817 47.3224766,3.6839759 47.3244738,3.6819701 C47.3704102,3.6478716 47.4163466,3.6157789 47.4662775,3.5816804 C48.0634506,3.1765099 48.7025657,3.0361043 49.1719158,3.0060174 C49.2398218,3.0020058 49.3037333,3 49.3636503,3 Z M73.457294,3.0003579 C73.614213,2.9984492 73.773119,3.0041753 73.930038,3.0175364 C73.973736,3.0194451 74.017435,3.02708 74.061134,3.0308975 C74.176341,3.0423499 74.289561,3.0576197 74.400795,3.0767069 C74.44648,3.0843418 74.492165,3.0938854 74.53785,3.1034291 C74.65107,3.1263338 74.76429,3.1530559 74.875524,3.1816868 C74.913264,3.1931392 74.951004,3.2045915 74.988744,3.2160439 C75.113882,3.2523097 75.235047,3.2943017 75.356213,3.3439285 C75.378062,3.3515634 75.397925,3.3591983 75.419775,3.368742 C75.860737,3.5500709 76.271905,3.7962965 76.629442,4.1150537 C76.609578,4.0959665 76.593688,4.0749705 76.573825,4.057792 C77.431913,4.7964689 78,5.9207083 78,7.4438715 L78,7.4438715 C78,9.7839694 76.585743,12 73.387773,12 C72.090708,12 71.016111,11.5762629 70.253366,10.8299511 L70.256,10.832 C70.256345,10.8347229 70.254855,10.8332914 70.253366,10.8316212 C70.160009,10.7383323 70.074597,10.6467134 69.995145,10.5493684 C69.987199,10.5398248 69.977268,10.5321899 69.971309,10.5226462 C69.887883,10.419575 69.808431,10.3126864 69.734937,10.2019803 C69.730964,10.1943454 69.725006,10.1886192 69.723019,10.182893 C69.647539,10.0702782 69.580004,9.9519372 69.516442,9.8297788 C69.514456,9.8240526 69.510483,9.8164177 69.506511,9.8106915 C69.446921,9.6923505 69.391304,9.5682833 69.341646,9.4403987 C69.337674,9.4289464 69.331715,9.4194027 69.327742,9.4079504 C69.280071,9.2857919 69.240344,9.159816 69.202604,9.0300227 L69.202604,9.0300227 L69.184727,8.9784871 C69.15096,8.8563286 69.125138,8.728444 69.101302,8.6005594 C69.095343,8.5738372 69.087398,8.547115 69.083425,8.5203929 C69.061576,8.3963257 69.047672,8.2665323 69.033767,8.1386477 C69.029795,8.1061994 69.023836,8.073751 69.019863,8.039394 C69.007945,7.8771523 69,7.7091844 69,7.5393078 C69,4.2333947 71.482896,3.0385324 73.457294,3.0003579 Z M57.4582966,3.0002923 C57.6171668,2.9983836 57.7740512,3.0060185 57.9309356,3.017471 C57.9766108,3.0212884 58.0203001,3.0270147 58.0659753,3.0327409 C58.1791703,3.0441933 58.2903795,3.0575545 58.4015887,3.0766419 C58.4492498,3.0861856 58.4988967,3.0957293 58.5465578,3.105273 C58.6557811,3.1281779 58.7650044,3.1529915 58.8722418,3.1816226 C58.9139453,3.193075 58.9556487,3.2064362 58.9973522,3.2178886 C59.1165049,3.2541547 59.2316858,3.2942382 59.3468667,3.340048 C59.374669,3.3495917 59.4024713,3.3610441 59.4282877,3.3705878 C59.8691527,3.5538268 60.276258,3.8000542 60.63173,4.1188138 C60.611871,4.0978176 60.593998,4.0768215 60.576125,4.0577341 C61.434025,4.7964164 62,5.9225728 62,7.4438383 L62,7.4438383 L62,7.453382 C62,9.7839532 60.586055,12 57.3967343,12 C55.2519859,12 53.7089585,10.8509387 53.1906443,8.9918262 C53.1886584,8.9880088 53.1886584,8.9841913 53.1866726,8.9822825 C53.1509267,8.8486708 53.1211386,8.7112415 53.0933363,8.5719035 C53.0913504,8.5547248 53.0873786,8.5394549 53.0853928,8.524185 C53.0615622,8.392482 53.0456752,8.2588702 53.0317741,8.1233497 C53.0297882,8.0966273 53.0238305,8.069905 53.0218447,8.0412739 C53.0079435,7.8771222 53,7.7110619 53,7.5392753 C53,4.2333382 55.4883054,3.0403758 57.4582966,3.0002923 Z M19.1704261,3 C20.5779449,3 21.5042607,3.4199486 22.0275689,3.8784247 C22.0155388,3.8649401 22.0055138,3.8514555 21.9934837,3.8398973 C22.039599,3.8764983 22.0877193,3.9169521 22.1278195,3.9554795 C22.9839599,4.7973031 23,5.9126712 23,6.6755137 L23,6.6755137 L23,11.7572774 L20.7864662,11.7572774 L20.7864662,10.7998716 C20.4095238,11.1774401 19.5533835,12 17.9192982,12 C16.3674185,12 15.3107769,11.1061644 15.0601504,9.8829195 C15.0581454,9.8809932 15.0581454,9.8771404 15.0581454,9.875214 C15.0421053,9.7981592 15.0300752,9.7211045 15.0220551,9.6421233 C15.0200501,9.624786 15.0160401,9.6113014 15.0160401,9.5958904 C15.006015,9.5092038 15.002005,9.4205908 15.002005,9.3339041 C15.002005,9.3261986 15,9.3184932 15,9.3107877 L15,9.3107877 L15.0054996,9.1198669 C15.1113651,7.3021404 16.732264,6.2940925 18.7072682,6.2940925 C19.5533835,6.2940925 20.1007519,6.4578339 20.7864662,6.65625 C20.7704261,6.234375 20.7343358,5.7836045 20.5478697,5.3713613 C20.5037594,5.2788955 20.4516291,5.197988 20.3954887,5.1190068 C20.3794486,5.0958904 20.3634085,5.0708476 20.3453634,5.0477312 C19.8701754,4.4409247 19.0661654,4.2791096 18.5047619,4.2791096 C17.0431078,4.2791096 16.4215539,5.0785531 16.0786967,5.5254709 L16.0786967,5.5254709 L15.7578947,5.3713613 L15.4992481,5.2461473 C15.4992481,5.2461473 15.5012531,5.2422945 15.5032581,5.2403682 L15.5032581,5.2403682 C15.5072682,5.2153253 15.5213033,5.1902825 15.5313283,5.1671661 L15.5313283,5.1671661 C15.5493734,5.1421233 15.5614035,5.1170805 15.5734336,5.0901113 C15.9704261,4.2714041 16.7243108,3 19.1704261,3 Z M66.462555,1 L66.462555,3.2943958 L68.178729,3.2943958 L68.178729,3.2847636 L68.352423,3.2847636 L68.352423,4.6043783 L66.462555,4.6043783 L66.462555,8.8926445 C66.462555,9.5900175 66.558842,9.9425569 66.71932,10.2238179 C66.774072,10.3316988 66.836375,10.4183888 66.902454,10.4954466 C66.889239,10.4838879 66.876023,10.4704028 66.864695,10.4607706 C66.921334,10.5378284 66.983638,10.6033275 67.045941,10.657268 C67.0837,10.691944 67.123348,10.7208406 67.162996,10.7478109 C67.174323,10.7555166 67.185651,10.7632224 67.196979,10.7709282 C67.230963,10.7921191 67.263059,10.8113835 67.295154,10.8267951 C67.30837,10.8345009 67.321586,10.8422067 67.33669,10.847986 C67.365009,10.8614711 67.391441,10.8730298 67.417873,10.882662 C67.438641,10.8903678 67.45752,10.8980736 67.4764,10.9038529 C67.489616,10.9077058 67.500944,10.9115587 67.512272,10.9154116 C67.695406,10.969352 67.848332,10.969352 67.918188,10.969352 C68.22404,10.969352 68.43927,10.9 68.669604,10.8248687 L68.669604,10.8248687 C68.692259,10.8094571 68.716803,10.8017513 68.743235,10.7921191 L68.743235,10.7921191 L69,11.3180385 C68.998112,11.319965 68.998112,11.319965 68.996224,11.319965 L68.996224,11.319965 L69,11.3295972 C68.516677,11.6224168 67.933291,12 66.868471,12 C66.479547,12 65.618628,11.9499124 64.989931,11.3084063 C64.986155,11.3064799 64.984267,11.302627 64.980491,11.2987741 L64.980491,11.2987741 L64.981,11.301 L64.943911,11.259282 L64.943911,11.259282 L64.90686,11.215937 C64.865324,11.1697023 64.820013,11.125394 64.784141,11.0772329 C64.769037,11.056042 64.757709,11.0329247 64.742605,11.0136602 C64.70107,10.9539405 64.661422,10.8980736 64.627439,10.8383538 C64.623663,10.8267951 64.617999,10.8171629 64.614223,10.8056042 C64.398993,10.4068301 64.329138,9.9656743 64.312146,9.5187391 C64.30837,9.4262697 64.30837,9.3357268 64.30837,9.2451839 L64.30837,4.6043783 L63,4.6043783 L63,3.2943958 L64.30837,3.2943958 L64.30837,1.0077058 L66.288861,1.0077058 L66.288861,1 L66.462555,1 Z M73.489075,4.3364659 C72.092695,4.3364659 71.395498,5.6668478 71.393511,7.468685 C71.393511,7.6061132 71.397484,7.739724 71.405429,7.8695174 C71.407416,7.8886046 71.409402,7.9076919 71.409402,7.9286879 C71.417347,8.0413027 71.427279,8.1520088 71.439197,8.2608062 C71.441183,8.2779847 71.445156,8.297072 71.447142,8.3123418 C71.461046,8.4306828 71.478923,8.5452063 71.500772,8.6578211 C71.502759,8.6597299 71.502759,8.6616386 71.502759,8.6635473 C71.623924,9.2686134 71.842419,9.7667908 72.166188,10.1141789 C72.146325,10.0989091 72.130435,10.0779131 72.110572,10.0588259 C72.162216,10.1218138 72.217833,10.1790756 72.275436,10.2325199 L72.273,10.23 L72.271463,10.2287025 L72.274194,10.2306112 L72.274,10.231 L72.393529,10.3316842 C72.477761,10.3964019 72.56758,10.4531269 72.66224,10.5011432 L72.807769,10.5665469 C72.815714,10.5703644 72.825646,10.5722731 72.833591,10.5741818 C72.917016,10.6066302 73.004414,10.6295349 73.095785,10.6486221 C73.11962,10.6524396 73.143456,10.6581658 73.169278,10.6619832 C73.272567,10.6791618 73.377842,10.6906141 73.489075,10.6906141 C74.913264,10.6906141 75.598543,9.299153 75.598543,7.5832085 C75.598543,7.4572326 75.596557,7.3331654 75.588612,7.211007 C75.588612,7.1785586 75.584639,7.148019 75.582653,7.113662 C75.576694,7.0258606 75.570735,6.9361505 75.560803,6.8502578 C75.558817,6.8159007 75.552858,6.7815437 75.548885,6.7490953 C75.538954,6.6651114 75.527036,6.5811275 75.513132,6.500961 C75.509159,6.4704214 75.5032,6.4398818 75.497241,6.4093422 C75.481351,6.3253582 75.463474,6.2413743 75.443611,6.1612078 C75.437652,6.1383031 75.433679,6.1153984 75.42772,6.0924937 C75.403884,6.0008748 75.378062,5.9130734 75.348267,5.8271808 C75.344295,5.8157284 75.342309,5.8042761 75.338336,5.7966412 C75.235047,5.4988799 75.099978,5.2392932 74.931141,5.0236072 C74.591481,4.5903265 74.118738,4.3364659 73.489075,4.3364659 Z M57.4920565,4.3383188 C56.0999559,4.3383188 55.4009267,5.6668017 55.3989409,7.468652 C55.4009267,7.6060812 55.4048985,7.7416017 55.4108561,7.871396 C55.4108561,7.8885747 55.412842,7.9038446 55.4148279,7.922932 C55.4227714,8.0412739 55.4327008,8.157707 55.4466019,8.2703226 C55.4485878,8.2817751 55.4505737,8.2932275 55.4505737,8.3027712 C55.5478817,9.0719933 55.788173,9.7018774 56.1754192,10.1179827 C56.1535746,10.0988953 56.1337158,10.0778991 56.113857,10.056903 C56.1654898,10.1218001 56.2250662,10.1809711 56.2846425,10.2363245 C56.4415269,10.37948 56.6162842,10.4901869 56.814872,10.5684452 C56.8208297,10.570354 56.8287732,10.5722627 56.8347308,10.5760802 C56.9201236,10.6085288 57.0075022,10.6314336 57.1008385,10.6486123 C57.1226831,10.6543385 57.1484996,10.658156 57.1723301,10.6619735 C57.2736099,10.6791521 57.3808473,10.6906046 57.4920565,10.6906046 C58.9199029,10.6906046 59.6010591,9.2991333 59.6010591,7.5831763 C59.6010591,7.4571995 59.5970874,7.3350402 59.5911297,7.2128808 C59.5891439,7.1785235 59.587158,7.1441662 59.5851721,7.1098089 C59.5792145,7.0239156 59.5732568,6.9380223 59.5633274,6.8540378 C59.5593557,6.815863 59.5553839,6.7795969 59.5494263,6.7433309 C59.5414828,6.6631638 59.5295675,6.5849055 59.5176523,6.5066471 C59.5116946,6.4722898 59.505737,6.4398413 59.4997793,6.4054839 C59.4838923,6.3253169 59.4660194,6.2451498 59.4481465,6.1688002 C59.4421889,6.1420779 59.4362312,6.1153555 59.4282877,6.0905419 C59.4064431,6.0008311 59.3806267,5.9149378 59.3528244,5.8309533 L59.3528244,5.8309533 L59.3409091,5.796596 C59.2356575,5.4988326 59.098632,5.2354265 58.9278464,5.0178302 L58.9278464,5.0178302 C58.5942189,4.5921812 58.1215799,4.3383188 57.4920565,4.3383188 Z M19.3107769,7.5905394 C18.2982456,7.5905394 17.4100251,8.099101 17.406015,9.1605308 C17.406015,9.5092038 17.5102757,9.8655822 17.7448622,10.1449058 C17.7328321,10.1372003 17.722807,10.1256421 17.7107769,10.1140839 C17.7709273,10.1930651 17.8411028,10.2643408 17.9213033,10.327911 L17.9125313,10.3190015 L17.9125313,10.3190015 L17.9052632,10.3086473 C18.0897243,10.4646832 18.3283208,10.5802654 18.6350877,10.630351 L18.6350877,10.630351 L18.6671679,10.6342038 C18.7674185,10.6496147 18.8696742,10.6592466 18.9839599,10.6592466 C19.7919799,10.6592466 20.3393484,10.3298373 20.7864662,10.046661 L20.7864662,10.046661 L20.7864662,7.9026113 C20.3393484,7.7388699 19.8962406,7.5905394 19.3107769,7.5905394 Z M98.604879,4.3588497 C96.991505,4.3588497 96.656284,5.6358638 96.432803,6.4656376 L96.432803,6.4656376 L100.565236,6.4656376 C100.508386,6.054557 100.426051,5.4607739 100.084949,5.0059209 L100.084949,5.0059209 C99.810499,4.6367097 99.359617,4.3588497 98.604879,4.3588497 Z"
                  id="Shape"/>
        </g>
    </g>
</svg>
