<svg xmlns="http://www.w3.org/2000/svg" viewBox="0 0 59.18 49.24"><defs><style>.cls-1{fill:#f8fafa;}</style></defs><title>Asset 4</title><g id="Layer_2" data-name="Layer 2"><g id="Layer_1-2" data-name="Layer 1"><path class="cls-1" d="M15.66,7.78c-.07.32-.48.33-.77.33h-.84c-.37,0-.54-.46-.65-.85a28.48,28.48,0,0,1-1-7.26H11.26C10.13,1.87,8.42,4.73,7.35,6.53l0,.08c-.3.5-.54.91-.7,1.2l-.06.11L6.49,8,5.9,9a12.22,12.22,0,0,0,8.36,3.28,12.26,12.26,0,0,0,9.43-4.4c-1.52-.63-4-2.49-4.27-7.91h-.63A35.43,35.43,0,0,0,15.66,7.78Z"/><path class="cls-1" d="M6.42,0H2A12.22,12.22,0,0,0,3.83,6.53,31,31,0,0,0,6.42,0Z"/><path class="cls-1" d="M8.58,0H8.35c-.08.37-.14.59-.13.58Z"/><path class="cls-1" d="M14.92,5.42A29.84,29.84,0,0,1,17.07,0H14.89A20.94,20.94,0,0,0,14.92,5.42Z"/><path class="cls-1" d="M21.94,4.71a6.92,6.92,0,0,0,2,2.83A12.23,12.23,0,0,0,26.57,0H21.7A11,11,0,0,0,21.94,4.71Z"/><path class="cls-1" d="M45.25,7.78c-.07.32-.48.33-.77.33h-.84c-.37,0-.54-.46-.65-.85A28.48,28.48,0,0,1,42,0H40.85C39.72,1.87,38,4.73,36.94,6.53l0,.08c-.3.5-.54.91-.7,1.2l-.06.11L36.08,8l-.59,1a12.22,12.22,0,0,0,8.36,3.28,12.26,12.26,0,0,0,9.43-4.4C51.76,7.28,49.32,5.42,49,0h-.63A35.43,35.43,0,0,0,45.25,7.78Z"/><path class="cls-1" d="M36,0H31.54a12.22,12.22,0,0,0,1.88,6.53A31,31,0,0,0,36,0Z"/><path class="cls-1" d="M38.17,0h-.23c-.08.37-.14.59-.13.58Z"/><path class="cls-1" d="M51.53,4.71a7,7,0,0,0,2,2.83A12.23,12.23,0,0,0,56.16,0H51.29A11,11,0,0,0,51.53,4.71Z"/><path class="cls-1" d="M44.51,5.42A29.56,29.56,0,0,1,46.67,0H44.48A20.94,20.94,0,0,0,44.51,5.42Z"/><path class="cls-1" d="M18.79,49.24h.63c0-.31,0-.62,0-1C19.39,48.2,19.15,48.58,18.79,49.24Z"/><path class="cls-1" d="M12.4,47.36l-1.14,1.88h1.12C12.37,48.33,12.4,47.67,12.4,47.36Z"/><path class="cls-1" d="M4.54,42.39a2.12,2.12,0,0,0-.57.09,12.22,12.22,0,0,0-2,6.76H6.42C7.42,45.42,7.18,42.27,4.54,42.39Z"/><path class="cls-1" d="M14.26,36.93a12.26,12.26,0,0,0-9.72,4.76,2.65,2.65,0,0,1,3.6,1.39c1,1.88.49,4.9.21,6.16h.23c1.36-2.13,4.52-6.83,4.85-7.24.19-.23.44-.52.77-.42a11.79,11.79,0,0,1,1.51.57.75.75,0,0,1,.39.85,48.19,48.19,0,0,0-1.21,6.24h2.18a44.67,44.67,0,0,1,3-5c.63-.94,2.1-.21,2.53,0a.17.17,0,0,1,.08.19,34.13,34.13,0,0,0-.94,4.79h4.87A12.31,12.31,0,0,0,14.26,36.93Z"/><path class="cls-1" d="M42,47.36s-.48.77-1.15,1.88H42C42,48.33,42,47.67,42,47.36Z"/><path class="cls-1" d="M48.38,49.24H49c0-.31,0-.62,0-1C49,48.2,48.74,48.58,48.38,49.24Z"/><path class="cls-1" d="M34.13,42.39a2.12,2.12,0,0,0-.57.09,12.22,12.22,0,0,0-2,6.76H36C37,45.42,36.77,42.27,34.13,42.39Z"/><path class="cls-1" d="M43.85,36.93a12.27,12.27,0,0,0-9.72,4.76,2.65,2.65,0,0,1,3.6,1.39c1,1.88.49,4.9.21,6.16h.23C39.53,47.11,42.69,42.41,43,42c.19-.23.44-.52.77-.42a11.79,11.79,0,0,1,1.51.57.75.75,0,0,1,.39.85,48.19,48.19,0,0,0-1.21,6.24h2.19a43,43,0,0,1,2.95-5c.63-.94,2.1-.21,2.53,0a.17.17,0,0,1,.08.19,34.13,34.13,0,0,0-.94,4.79h4.87A12.31,12.31,0,0,0,43.85,36.93Z"/><path class="cls-1" d="M9.43,32.53c-1.61-.66-4.24-2.69-4.3-8.87A32.61,32.61,0,0,0,1.4,32.4c-.07.32-.48.33-.77.33H0v4.2A12.26,12.26,0,0,0,9.43,32.53Z"/><path class="cls-1" d="M1.84,18.38C1.77,19-.13,24.9.66,30A35.18,35.18,0,0,1,5.77,19.61c.63-.94,2.1-.21,2.53,0a.17.17,0,0,1,.08.19c-.24.92-1.77,6.56-.69,9.5a6.91,6.91,0,0,0,2,2.83,12.25,12.25,0,0,0,2.58-7.54A12.31,12.31,0,0,0,0,12.31V17a10.57,10.57,0,0,1,1.45.55A.75.75,0,0,1,1.84,18.38Z"/><path class="cls-1" d="M34.72,23.66A32.61,32.61,0,0,0,31,32.4c-.07.32-.48.33-.77.33h-.84c-.37,0-.54-.46-.65-.85a29.38,29.38,0,0,1-1-9.14s-3.36,5.53-5.06,8.41l0,.08c-.3.5-.54.91-.7,1.2l-.06.11-.05.09-.6,1A12.3,12.3,0,0,0,39,32.53C37.41,31.87,34.78,29.84,34.72,23.66Z"/><path class="cls-1" d="M19.87,17.77a2.12,2.12,0,0,0-.57.09,12.3,12.3,0,0,0-.14,13.29C22.28,25.28,24,17.59,19.87,17.77Z"/><path class="cls-1" d="M29.59,12.31a12.27,12.27,0,0,0-9.72,4.76,2.65,2.65,0,0,1,3.6,1.39c1.31,2.43.05,6.79.08,6.74,1-1.68,4.85-7.36,5.21-7.81.19-.24.44-.53.77-.43a11.79,11.79,0,0,1,1.51.57.75.75,0,0,1,.39.85c-.07.57-2,6.52-1.18,11.66a35.18,35.18,0,0,1,5.11-10.43c.63-.94,2.1-.21,2.53,0a.17.17,0,0,1,.08.19c-.24.92-1.76,6.56-.69,9.5a6.91,6.91,0,0,0,2,2.83,12.31,12.31,0,0,0-9.73-19.85Z"/><path class="cls-1" d="M58.32,31.88a29.38,29.38,0,0,1-1-9.14S54,28.27,52.27,31.15l0,.08c-.3.5-.54.91-.7,1.2l-.06.11,0,.09-.6,1a12.24,12.24,0,0,0,8.36,3.28v-4.2H59C58.6,32.73,58.43,32.27,58.32,31.88Z"/><path class="cls-1" d="M49.46,17.77a2.12,2.12,0,0,0-.57.09,12.3,12.3,0,0,0-.14,13.29C51.87,25.28,53.57,17.59,49.46,17.77Z"/><path class="cls-1" d="M49.46,17.07a2.65,2.65,0,0,1,3.6,1.39c1.31,2.43,0,6.79.08,6.74,1-1.68,4.85-7.36,5.21-7.81.19-.24.44-.53.77-.43l.06,0V12.31A12.27,12.27,0,0,0,49.46,17.07Z"/></g></g></svg>